<svg width="1920" height="225" viewBox="0 0 1920 225" fill="none" xmlns="http://www.w3.org/2000/svg">
<path d="M0 37.5001L53.3333 59.7001C106.667 86.0001 213.333 140 320 123.7C426.667 108 533.333 22.0001 640 11.7001C746.667 1.0001 853.333 65.0001 960 97.0001C1066.67 129 1173.33 129 1280 102.3C1386.67 76.0001 1493.33 22.0001 1600 6.30011C1706.67 -9.99989 1813.33 12.0001 1866.67 22.3001L1920 33.0001V225H1866.67C1813.33 225 1706.67 225 1600 225C1493.33 225 1386.67 225 1280 225C1173.33 225 1066.67 225 960 225C853.333 225 746.667 225 640 225C533.333 225 426.667 225 320 225C213.333 225 106.667 225 53.3333 225H0V37.5001Z" fill="#121212"/>
</svg>
