<svg width="1920" height="232" viewBox="0 0 1920 232" fill="none" xmlns="http://www.w3.org/2000/svg">
<path d="M1920 193.359L1866.67 170.466C1813.33 143.344 1706.67 87.6563 1600 104.466C1493.33 120.656 1386.67 209.344 1280 219.966C1173.33 231 1066.67 165 960 132C853.333 99 746.667 99 640 126.534C533.333 153.656 426.667 209.344 320 225.534C213.333 242.344 106.667 219.656 53.3333 209.034L0 198V4.57764e-05H53.3333C106.667 4.57764e-05 213.333 4.57764e-05 320 4.57764e-05C426.667 4.57764e-05 533.333 4.57764e-05 640 4.57764e-05C746.667 4.57764e-05 853.333 4.57764e-05 960 4.57764e-05C1066.67 4.57764e-05 1173.33 4.57764e-05 1280 4.57764e-05C1386.67 4.57764e-05 1493.33 4.57764e-05 1600 4.57764e-05C1706.67 4.57764e-05 1813.33 4.57764e-05 1866.67 4.57764e-05H1920V193.359Z" fill="#121212"/>
</svg>
